<svg xmlns="http://www.w3.org/2000/svg" width="460" height="155" viewBox="160 280 480 200" version="1.1" xmlns:xlink="http://www.w3.org/1999/xlink">
  <path d="M216.445 334.504q2.25 0 4.497-.005 4.692 0 9.385.034c3.999.029 7.997.026 11.996.013 3.09-.007 6.18.001 9.27.014q2.213.006 4.424 0c2.062-.002 4.124.014 6.187.036l3.547.016c5.602.669 9.636 3.106 13.249 7.388 1.166 3.5 1.141 6.269 1.161 9.962l.015 2.135q.021 3.495.027 6.989l.017 4.861a4935 4935 0 0 1 .02 10.194c.006 4.35.03 8.7.058 13.05.019 3.347.024 6.695.026 10.042q.004 2.406.024 4.81c.017 2.246.015 4.49.008 6.736l.011 3.869c-.67 6.118-4.498 9.869-8.555 14.227l-1.49 1.616c-3.182 3.405-6.505 6.472-10.084 9.458-3.772 3.456-7.16 7.28-10.583 11.078-8.884 9.782-8.884 9.782-15.557 10.12l-3.586.03-1.981.02q-3.244.028-6.488.041l-2.242.013q-5.876.03-11.75.044c-4.039.011-8.077.046-12.115.085-3.112.027-6.223.035-9.335.038q-2.233.008-4.465.035c-2.087.025-4.173.024-6.26.017l-3.593.018c-4.087-.607-6.144-1.818-9.283-4.488-2.627-4.082-3.384-7.277-3.452-12.09l-.067-3.582-.02-3.836-.038-3.99q-.032-4.18-.034-8.357a649 649 0 0 0-.12-10.61 567 567 0 0 1-.05-8.247 336 336 0 0 0-.089-5.782c.07-9.233 2.635-14.994 7.87-22.506q1.666-2.564 3.324-5.133 1.675-2.5 3.363-4.992c3.6-5.325 7.191-10.644 10.606-16.09l1.577-2.478q1.46-2.295 2.871-4.622l1.345-2.095 1.126-1.817c7.132-7.074 15.892-6.348 25.233-6.27M308 356c4.23.847 6.002 2.668 9.027 5.77l1.427 1.446a868 868 0 0 1 4.483 4.596q2.233 2.286 4.473 4.565 2.038 2.077 4.066 4.165c2.488 2.513 2.488 2.513 5.347 4.656L339 383v2l1.779.775c2.437 1.344 3.892 2.767 5.76 4.823l1.994 2.166 2.092 2.298c5.121 5.542 10.223 10.887 15.969 15.786 2.268 2.028 4.41 4.13 6.556 6.287l2.185 2.19L377 421l.031-2.264q.147-10.551.308-21.101.084-5.425.158-10.85.072-5.232.156-10.464.044-2.973.081-5.946l.06-3.64.048-3.217C378 361 378 361 379 359h17c1.805 3.61 2.25 4.596 2.24 8.315l.009 2.592-.022 2.819v2.987c0 3.257-.016 6.514-.032 9.771l-.008 6.777c-.008 5.944-.028 11.889-.05 17.833-.02 6.067-.03 12.133-.04 18.199-.02 11.902-.055 23.805-.097 35.707-3.757-1.768-6.38-3.979-9.437-6.812l-1.57-1.453c-4.54-4.236-8.937-8.612-13.276-13.055a130 130 0 0 0-8.358-7.82c-6.317-5.462-12.078-11.523-17.941-17.463q-2.331-2.356-4.668-4.71l-2.766-2.8c-3.506-3.469-7.246-6.672-10.984-9.887l-.031 2.271q-.147 10.574-.308 21.146-.084 5.437-.158 10.873-.072 5.243-.156 10.484-.044 2.983-.081 5.965l-.06 3.64-.048 3.223C328 460 328 460 327 461c-2.824.127-5.613.185-8.437.188l-2.393.037c-2.058.005-4.116-.103-6.17-.225-2-2-2-2-2.246-3.855l.005-2.296-.008-2.634.022-2.897v-3.045a2339 2339 0 0 1 .032-10l.008-6.919c.008-6.08.028-12.159.05-18.238.02-6.2.03-12.4.04-18.6.02-12.172.055-24.344.097-36.516m134.938 36.563 2.4.025c9.193.266 15.175 3.227 21.877 9.502 6.58 7.04 9.804 15.627 10.223 25.223-.36 10.565-3.806 20.256-11.438 27.687-9.37 7.507-20.467 8.13-32 7-3.707-.836-6.727-2.085-10-4l-2.168-1.25c-6.86-4.53-11.184-11.313-13.207-19.25-1.809-10.63-.7-20.924 5-30.25 7.303-10.086 17.04-14.854 29.313-14.687M433 411c-5.534 6.078-6.406 11.594-6.352 19.691.617 5.799 3.259 9.4 7.477 13.247 3.991 2.261 7.364 2.368 11.875 2.062 5.416-2.018 8.109-4.918 11.086-9.77 2.18-5.32 1.776-12.263.191-17.718-1.939-4.17-4.194-7.244-8.277-9.512-5.992-1.625-10.606-1.32-16 2m151.863-12.566c5.78 5.16 9.502 12.033 10.578 19.718C595 421 595 421 592.975 422.482c-3.59 1.832-7.236 3.264-11.014 4.655l-2.311.861q-2.407.894-4.816 1.783c-2.46.907-4.917 1.825-7.373 2.744q-2.343.87-4.688 1.737l-2.225.833C557.563 436.188 555.206 437 552 437c2.388 5.057 5.129 6.607 10 9 8.378 2.488 14.55.735 22.3-3.004 2.7-.996 2.7-.996 4.91-.887 2.363 1.176 2.968 2.342 4.102 4.704l1.051 2.082c.758 2.505.615 3.694-.363 6.105-8.46 7.158-21.24 8.886-32 8-9.985-1.47-18.597-5.26-24.937-13.375-6.058-9.611-6.988-20.723-4.84-31.672 2.426-9.219 6.985-15.467 14.777-20.953 11.985-6.812 26.74-7.124 37.863 1.434M554 412c-3.088 4.536-4.557 8.43-4 14 9.15-2.563 18.06-5.795 27-9-1.845-3.856-3.514-6.386-7-9-6.243-1.22-11.296-.48-16 4m-54.273-46.137 2.273.012 2.273-.012c5.6.01 5.6.01 6.727 1.137.088 2 .107 4.002.098 6.004l-.01 3.682-.026 3.877-.013 3.888q-.018 4.774-.049 9.549l2.773-.035 3.602-.027 3.586-.036C524 394 524 394 526 395q.039 3.468.063 6.938l.035 3.902C526 409 526 409 525 410a168 168 0 0 1-6.562.563l-3.63.253L512 411l-.031 1.854q-.163 9.513-.341 19.026-.065 3.555-.125 7.11-.088 5.097-.187 10.194l-.05 3.232-.06 2.972-.048 2.632C511 460 511 460 510 461c-2.677.1-5.323.139-8 .125l-2.273.012c-5.6-.01-5.6-.01-6.727-1.137a76 76 0 0 1-.114-4.703v-3.034l.016-3.298.005-3.359c.005-3.556.018-7.112.03-10.668q.009-3.608.014-7.213.017-8.863.049-17.725l-3.312.625C486 411 486 411 483 409c-.363-2.969-.363-2.969-.312-6.5l.011-3.531C483 396 483 396 485 394c2.688-.27 5.291-.087 8 0l-.016-2.463q-.029-5.487-.046-10.974l-.026-3.877-.01-3.682-.016-3.412c.21-4.79 2.623-3.721 6.84-3.729" fill="#ffff"></path>
  <path d="M213 351h20l3 8 1-8h21v46h-21l-2-6-1 6h-21z" fill="#262626"></path>
  <path d="M634 395c2.063 1.125 2.063 1.125 3 3-.443 3.533-1.409 6.818-3 10-.675-.095-1.35-.19-2.047-.29-.892-.11-1.784-.22-2.703-.335l-2.672-.352c-2.807-.025-4.212.529-6.578 1.977-.67 3.287-.67 3.287 0 7 2.376 2.17 5.162 3.514 8 5 5.596 3.264 9.229 6.601 11 13 1.025 8.654-.197 15.257-4.625 22.75-4.425 4.192-9.708 6.436-15.812 6.75-5.814-.276-11.783-2.299-16.364-5.926C601 456 601 456 601.188 452.625c1.344-5.998 1.344-5.998 2.812-8.625 2.317-.924 3.54-1.15 5.93-.371l1.945.933c3.282 1.365 3.955 1.478 7.625.625L622 444v-8l-2.219-.836c-6.656-2.786-12.38-6.537-15.906-12.965-2.598-6.53-2.423-12.72.113-19.226 5.87-11.444 19.203-12.251 30.012-7.973" fill="#ffff"></path>
</svg>