<?xml version="1.0" encoding="UTF-8"?>
<svg version="1.1" xmlns="http://www.w3.org/2000/svg" width="800" height="800">
<path d="M0 0 C1.49876984 -0.00015522 2.99754007 -0.001648 4.49630737 -0.00440979 C7.62483645 -0.00578852 10.75290412 0.00667793 13.88134766 0.02954102 C17.88050021 0.05797391 21.87888999 0.05516815 25.87809944 0.0424509 C28.96831724 0.03548024 32.05836028 0.04329792 35.14855576 0.05570793 C36.62286584 0.06020551 38.09719479 0.06057411 39.5715065 0.05664253 C41.63415973 0.05371521 43.69577869 0.07030558 45.75830078 0.09204102 C47.51413986 0.10014549 47.51413986 0.10014549 49.30545044 0.1084137 C54.90795411 0.77687183 58.94162399 3.2139444 62.5546875 7.49609375 C63.72116496 10.99552613 63.69604113 13.76483586 63.71582031 17.45849609 C63.72326767 18.51512199 63.72326767 18.51512199 63.73086548 19.59309387 C63.7454669 21.92274961 63.75228552 24.25233727 63.7578125 26.58203125 C63.76356539 28.20244346 63.76932311 29.82285565 63.77508545 31.44326782 C63.78558953 34.84108802 63.79143615 38.2388846 63.79492188 41.63671875 C63.80040695 45.98688922 63.82443757 50.33674675 63.85289383 54.68681908 C63.87153278 58.03430082 63.87672646 61.38170735 63.87825775 64.7292366 C63.88128172 66.33278744 63.88930165 67.93633704 63.90244293 69.53983688 C63.919531 71.7850999 63.91761691 74.02960038 63.91113281 76.27490234 C63.91660126 78.18993057 63.91660126 78.18993057 63.92218018 80.14364624 C63.25146902 86.26220065 59.42399035 90.01306387 55.3671875 94.37109375 C54.87524902 94.90428223 54.38331055 95.4374707 53.87646484 95.98681641 C50.69502642 99.3923144 47.37182209 102.4592299 43.79296875 105.4453125 C40.02110197 108.90121139 36.63244715 112.72490948 33.20947266 116.52294922 C24.32543048 126.3048611 24.32543048 126.3048611 17.65275574 126.64326477 C16.46950211 126.65310898 15.28624847 126.66295319 14.06713867 126.6730957 C13.41309555 126.6796669 12.75905243 126.6862381 12.08518982 126.69300842 C9.9226774 126.7127039 7.7602343 126.72439556 5.59765625 126.734375 C4.48769507 126.74048829 4.48769507 126.74048829 3.35531044 126.74672508 C-0.56138198 126.76756985 -4.47803953 126.78187842 -8.39477539 126.79125977 C-12.43332023 126.80232094 -16.47131358 126.83672134 -20.50966358 126.87643147 C-23.62128196 126.90261663 -26.73276928 126.91095324 -29.84448814 126.91454124 C-31.33279838 126.91940235 -32.82110295 126.93100288 -34.30930519 126.94957924 C-36.39650423 126.97401315 -38.48228084 126.97299911 -40.56958008 126.96606445 C-42.3480407 126.97486382 -42.3480407 126.97486382 -44.16242981 126.98384094 C-48.24906306 126.37667825 -50.30593772 125.16629847 -53.4453125 122.49609375 C-56.0725111 118.41417863 -56.82971287 115.218797 -56.89697266 110.40576172 C-56.9193399 109.22368134 -56.94170715 108.04160095 -56.9647522 106.82369995 C-56.97122772 105.55801178 -56.97770325 104.29232361 -56.984375 102.98828125 C-56.99673187 101.67127228 -57.00908875 100.35426331 -57.02182007 98.99734497 C-57.04424113 96.21170924 -57.0538436 93.42634583 -57.05615234 90.640625 C-57.06141274 87.10311226 -57.11261773 83.5679244 -57.17566872 80.03103447 C-57.21692855 77.28196718 -57.22579746 74.53344077 -57.22626877 71.78409195 C-57.23414697 69.85657098 -57.27426421 67.92926615 -57.31533813 66.00216675 C-57.24495852 56.76881087 -54.68041567 51.00838313 -49.4453125 43.49609375 C-48.33482545 41.78672216 -47.22637056 40.07602638 -46.12109375 38.36328125 C-45.00415966 36.69642389 -43.88298169 35.03240332 -42.7578125 33.37109375 C-39.15774095 28.04628962 -35.56700307 22.72753335 -32.15234375 17.28125 C-31.6318042 16.46350098 -31.11126465 15.64575195 -30.57495117 14.80322266 C-29.60276871 13.27214965 -28.64479154 11.73192148 -27.7043457 10.18115234 C-27.26050537 9.48973145 -26.81666504 8.79831055 -26.359375 8.0859375 C-25.9876416 7.48644287 -25.6159082 6.88694824 -25.23291016 6.26928711 C-18.10115923 -0.80499683 -9.34119998 -0.07902121 0 0 Z " fill="#030331" transform="translate(216.4453125,334.50390625)"/>
<path d="M0 0 C4.22984881 0.84729524 6.00245313 2.6677913 9.02734375 5.76953125 C9.49813858 6.2469426 9.96893341 6.72435394 10.45399475 7.2162323 C11.95577957 8.74137197 13.44704732 10.27629098 14.9375 11.8125 C16.42602578 13.33626573 17.91672319 14.8578112 19.41029358 16.37663269 C20.76998435 17.76090869 22.12332889 19.15140977 23.47631836 20.54223633 C25.96391266 23.05525038 25.96391266 23.05525038 28.82250977 25.19799805 C29.54108154 25.79265869 30.25965332 26.38731934 31 27 C31 27.66 31 28.32 31 29 C31.58700684 29.25579834 32.17401367 29.51159668 32.77880859 29.77514648 C35.21626293 31.119256 36.67097918 32.54225068 38.5390625 34.59765625 C39.19712891 35.31252197 39.85519531 36.0273877 40.53320312 36.76391602 C41.22349609 37.52244873 41.91378906 38.28098145 42.625 39.0625 C47.74643155 44.60435621 52.84771722 49.94852009 58.59375 54.84765625 C60.86178182 56.87636653 63.00357138 58.97885246 65.15039062 61.13452148 C65.87117798 61.85759995 66.59196533 62.58067841 67.33459473 63.32566833 C67.88417847 63.87819778 68.43376221 64.43072723 69 65 C69.01030746 64.25275665 69.02061493 63.50551331 69.03123474 62.73562622 C69.12911447 55.70185331 69.23161523 48.6681666 69.33933926 41.63453865 C69.39456054 38.0182718 69.44797924 34.40199685 69.49731445 30.78564453 C69.54496978 27.29724878 69.59731296 23.8089523 69.65294075 20.3206749 C69.68331232 18.33867812 69.70879787 16.35660845 69.73423767 14.37454224 C69.75418289 13.17344818 69.77412811 11.97235413 69.79467773 10.73486328 C69.81022202 9.67341095 69.8257663 8.61195862 69.84178162 7.51834106 C70 5 70 5 71 3 C76.61 3 82.22 3 88 3 C89.80534359 6.61068717 90.2497609 7.59611723 90.24050903 11.31536865 C90.24325836 12.17069687 90.24600769 13.02602509 90.24884033 13.90727234 C90.2380545 15.30233757 90.2380545 15.30233757 90.22705078 16.72558594 C90.22734283 17.71128067 90.22763489 18.6969754 90.22793579 19.71253967 C90.22654269 22.96990773 90.21098223 26.22704691 90.1953125 29.484375 C90.1915823 31.74310176 90.18873536 34.00183013 90.18673706 36.26055908 C90.17910114 42.2052253 90.15945291 48.14979378 90.1373291 54.09442139 C90.11686985 60.16059039 90.10773517 66.22677519 90.09765625 72.29296875 C90.07620706 84.19535544 90.04207153 96.09766959 90 108 C86.24288662 106.23185868 83.62018887 104.02115196 80.5625 101.1875 C80.04461914 100.70829102 79.52673828 100.22908203 78.99316406 99.73535156 C74.45251633 95.49940877 70.05557695 91.12259982 65.71704102 86.68041992 C63.02593631 83.94331343 60.27958946 81.35165297 57.359375 78.859375 C51.04197255 73.39754828 45.28112638 67.33662246 39.41796875 61.39746094 C37.86414002 59.82531785 36.30713323 58.25636916 34.75 56.6875 C33.83734375 55.76324219 32.9246875 54.83898437 31.984375 53.88671875 C28.47780114 50.41825983 24.73782451 47.21488282 21 44 C20.9845388 45.12419594 20.9845388 45.12419594 20.96876526 46.27110291 C20.87095475 53.31990454 20.76846424 60.36861874 20.66066074 67.41727352 C20.60539903 71.0414158 20.551974 74.6655661 20.50268555 78.28979492 C20.45508968 81.78467099 20.4027489 85.2794462 20.34705925 88.77420235 C20.31663587 90.76233823 20.29118018 92.75054809 20.26576233 94.73875427 C20.24581711 95.93992386 20.22587189 97.14109344 20.20532227 98.37866211 C20.18977798 99.44233505 20.1742337 100.506008 20.15821838 101.60191345 C20 104 20 104 19 105 C16.17583618 105.12663091 13.38705207 105.18520548 10.5625 105.1875 C9.77294922 105.19974609 8.98339844 105.21199219 8.16992188 105.22460938 C6.11192565 105.22987279 4.05437991 105.12206285 2 105 C0 103 0 103 -0.24609566 101.14531517 C-0.24425207 100.38760134 -0.24240849 99.6298875 -0.24050903 98.84921265 C-0.24325836 97.97980545 -0.24600769 97.11039825 -0.24884033 96.21464539 C-0.24164978 95.25870987 -0.23445923 94.30277435 -0.22705078 93.31787109 C-0.22734283 92.31296127 -0.22763489 91.30805145 -0.22793579 90.27268982 C-0.22653856 86.93951893 -0.21095882 83.60656951 -0.1953125 80.2734375 C-0.19158377 77.96701174 -0.18873614 75.6605844 -0.18673706 73.35415649 C-0.17908959 67.27465464 -0.15943154 61.19524789 -0.1373291 55.11578369 C-0.11689463 48.91574388 -0.10774048 42.71568875 -0.09765625 36.515625 C-0.0761867 24.34370815 -0.04203735 12.17186197 0 0 Z " fill="#020230" transform="translate(308,356)"/>
<path d="M0 0 C1.18795166 0.01244751 1.18795166 0.01244751 2.39990234 0.02514648 C11.5933864 0.29130855 17.57589851 3.252233 24.27734375 9.52734375 C30.85722119 16.56795659 34.0815991 25.1546726 34.5 34.75 C34.14134361 45.31541963 30.69484418 55.00682346 23.0625 62.4375 C13.69234795 69.94468874 2.59559944 70.56708858 -8.9375 69.4375 C-12.64457925 68.60103084 -15.66489683 67.35200277 -18.9375 65.4375 C-19.65292969 65.025 -20.36835938 64.6125 -21.10546875 64.1875 C-27.96471129 59.65756872 -32.28966324 52.87432477 -34.3125 44.9375 C-36.12144366 34.30762486 -35.01279211 24.01381126 -29.3125 14.6875 C-22.00996783 4.60132933 -12.27323563 -0.16613738 0 0 Z M-9.9375 18.4375 C-15.47100258 24.51575154 -16.34322754 30.03123249 -16.2890625 38.12890625 C-15.67292564 43.92743866 -13.03095539 47.52876127 -8.8125 51.375 C-4.82148579 53.63657472 -1.4481517 53.7433069 3.0625 53.4375 C8.47826788 51.41986098 11.1711634 48.51942618 14.1484375 43.66796875 C16.32901374 38.34698998 15.92414557 31.40435529 14.33984375 25.94921875 C12.40051847 21.78006198 10.14517879 18.70565488 6.0625 16.4375 C0.07048499 14.81254678 -4.54369655 15.11823634 -9.9375 18.4375 Z " fill="#020230" transform="translate(442.9375,392.5625)"/>
<path d="M0 0 C5.78008052 5.16122821 9.50197817 12.03334743 10.578125 19.71875 C10.13671875 22.56640625 10.13671875 22.56640625 8.11157227 24.04833984 C4.52178911 25.88020457 0.87618397 27.31210391 -2.90234375 28.703125 C-4.04635147 29.12958061 -4.04635147 29.12958061 -5.21347046 29.56465149 C-6.81783166 30.16120689 -8.42312764 30.75525366 -10.02929688 31.34692383 C-12.489802 32.25446717 -14.94618092 33.17257573 -17.40234375 34.09179688 C-18.96460799 34.671209 -20.52710033 35.25000654 -22.08984375 35.828125 C-22.8242569 36.10307297 -23.55867004 36.37802094 -24.31533813 36.66130066 C-27.30077553 37.75445269 -29.65726311 38.56640625 -32.86328125 38.56640625 C-30.47513426 43.62365871 -27.73444897 45.17355193 -22.86328125 47.56640625 C-14.48566343 50.05480758 -8.31389917 48.30141019 -0.5625 44.5625 C2.13671875 43.56640625 2.13671875 43.56640625 4.34765625 43.67578125 C6.70944256 44.85151766 7.31450323 46.01747125 8.44921875 48.37890625 C8.79597656 49.06597656 9.14273438 49.75304687 9.5 50.4609375 C10.25775627 52.96664687 10.11516174 54.15560341 9.13671875 56.56640625 C0.67747805 63.7242253 -12.10240357 65.45200643 -22.86328125 64.56640625 C-32.84795698 63.0956905 -41.46015265 59.30590119 -47.80078125 51.19140625 C-53.85857578 41.58027641 -54.78820775 30.46799232 -52.640625 19.51953125 C-50.21393125 10.30053387 -45.65550951 4.05264176 -37.86328125 -1.43359375 C-25.87796373 -8.24567702 -11.12248018 -8.55754765 0 0 Z M-30.86328125 13.56640625 C-33.95178017 18.10263904 -35.4202748 21.9964707 -34.86328125 27.56640625 C-25.71279846 25.00337176 -16.80321929 21.77109402 -7.86328125 18.56640625 C-9.70875134 14.71069195 -11.3776489 12.18063051 -14.86328125 9.56640625 C-21.10629388 8.34698642 -26.15965086 9.08675826 -30.86328125 13.56640625 Z " fill="#020230" transform="translate(584.86328125,398.43359375)"/>
<path d="M0 0 C1.12535156 0.00580078 1.12535156 0.00580078 2.2734375 0.01171875 C3.02367187 0.00785156 3.77390625 0.00398438 4.546875 0 C10.14682697 0.01010822 10.14682697 0.01010822 11.2734375 1.13671875 C11.36101753 3.13636857 11.38040326 5.13907985 11.37109375 7.140625 C11.36787109 8.35556641 11.36464844 9.57050781 11.36132812 10.82226562 C11.35294922 12.10166016 11.34457031 13.38105469 11.3359375 14.69921875 C11.33142578 15.98248047 11.32691406 17.26574219 11.32226562 18.58789062 C11.31043295 21.77087897 11.29394818 24.95377637 11.2734375 28.13671875 C12.64628906 28.11931641 12.64628906 28.11931641 14.046875 28.1015625 C15.82964844 28.08802734 15.82964844 28.08802734 17.6484375 28.07421875 C19.42347656 28.05681641 19.42347656 28.05681641 21.234375 28.0390625 C24.2734375 28.13671875 24.2734375 28.13671875 26.2734375 29.13671875 C26.30029162 31.44915667 26.31976591 33.76168145 26.3359375 36.07421875 C26.34753906 37.36199219 26.35914063 38.64976562 26.37109375 39.9765625 C26.2734375 43.13671875 26.2734375 43.13671875 25.2734375 44.13671875 C23.09050976 44.37153568 20.90140576 44.55035198 18.7109375 44.69921875 C17.51339844 44.78300781 16.31585937 44.86679687 15.08203125 44.953125 C14.15519531 45.01371094 13.22835937 45.07429688 12.2734375 45.13671875 C12.2579763 46.05420143 12.2579763 46.05420143 12.24220276 46.99021912 C12.13437005 53.33254191 12.01975408 59.67471589 11.90112305 66.0168457 C11.8576994 68.38660583 11.81603001 70.75639875 11.77612305 73.1262207 C11.71859982 76.52435208 11.65485447 79.92231718 11.58984375 83.3203125 C11.57313126 84.3869664 11.55641876 85.4536203 11.53919983 86.55259705 C11.51925461 87.53353836 11.49930939 88.51447968 11.47875977 89.52514648 C11.46321548 90.39340561 11.4476712 91.26166473 11.43165588 92.15623474 C11.2734375 94.13671875 11.2734375 94.13671875 10.2734375 95.13671875 C7.5961237 95.23653089 4.95039575 95.2755175 2.2734375 95.26171875 C1.14808594 95.26751953 1.14808594 95.26751953 0 95.2734375 C-5.59995197 95.26332928 -5.59995197 95.26332928 -6.7265625 94.13671875 C-6.81982966 92.57124827 -6.84401832 91.00159103 -6.84008789 89.43334961 C-6.84001236 88.43238754 -6.83993683 87.43142548 -6.83985901 86.40013123 C-6.83469772 85.31160355 -6.82953644 84.22307587 -6.82421875 83.1015625 C-6.8228038 81.9931752 -6.82138885 80.8847879 -6.81993103 79.74281311 C-6.81431283 76.18658806 -6.80175725 72.63042492 -6.7890625 69.07421875 C-6.78404984 66.66992278 -6.77948653 64.26562583 -6.77539062 61.86132812 C-6.76433749 55.95310371 -6.74758167 50.04491565 -6.7265625 44.13671875 C-7.8196875 44.34296875 -8.9128125 44.54921875 -10.0390625 44.76171875 C-13.7265625 45.13671875 -13.7265625 45.13671875 -16.7265625 43.13671875 C-17.08984375 40.16796875 -17.08984375 40.16796875 -17.0390625 36.63671875 C-17.03519531 35.47140625 -17.03132813 34.30609375 -17.02734375 33.10546875 C-16.7265625 30.13671875 -16.7265625 30.13671875 -14.7265625 28.13671875 C-12.03816865 27.86679969 -9.43514314 28.04934518 -6.7265625 28.13671875 C-6.73179932 27.32404541 -6.73703613 26.51137207 -6.74243164 25.67407227 C-6.76313244 22.01579553 -6.77620053 18.35753108 -6.7890625 14.69921875 C-6.80163086 12.78012695 -6.80163086 12.78012695 -6.81445312 10.82226562 C-6.81928711 8.99985352 -6.81928711 8.99985352 -6.82421875 7.140625 C-6.82945557 6.01470947 -6.83469238 4.88879395 -6.84008789 3.72875977 C-6.63032066 -1.06069988 -4.21777078 0.0076133 0 0 Z " fill="#020230" transform="translate(499.7265625,365.86328125)"/>
<path d="M0 0 C6.6 0 13.2 0 20 0 C20.99 2.64 21.98 5.28 23 8 C23.33 5.36 23.66 2.72 24 0 C30.93 0 37.86 0 45 0 C45 15.18 45 30.36 45 46 C38.07 46 31.14 46 24 46 C23.34 44.02 22.68 42.04 22 40 C21.67 41.98 21.34 43.96 21 46 C14.07 46 7.14 46 0 46 C0 30.82 0 15.64 0 0 Z " fill="#F4F4EF" transform="translate(213,351)"/>
<path d="M0 0 C2.0625 1.125 2.0625 1.125 3 3 C2.55742037 6.53338166 1.59124009 9.81751983 0 13 C-0.67546875 12.90460938 -1.3509375 12.80921875 -2.046875 12.7109375 C-2.93890625 12.60007812 -3.8309375 12.48921875 -4.75 12.375 C-5.63171875 12.25898438 -6.5134375 12.14296875 -7.421875 12.0234375 C-10.22859878 11.99792183 -11.63384866 12.55156156 -14 14 C-14.66923762 17.28743547 -14.66923762 17.28743547 -14 21 C-11.62445454 23.17002753 -8.83780785 24.51400255 -6 26 C-0.40354808 29.26366234 3.22901694 32.60126955 5 39 C6.02497327 47.65403567 4.80294991 54.25654631 0.375 61.75 C-4.04980495 65.94192047 -9.3329286 68.18611246 -15.4375 68.5 C-21.25094687 68.22414224 -27.21973736 66.20129255 -31.80078125 62.57421875 C-33 61 -33 61 -32.8125 57.625 C-31.46818182 51.62727273 -31.46818182 51.62727273 -30 49 C-27.68314839 48.07622335 -26.46059637 47.84988661 -24.0703125 48.62890625 C-23.42835938 48.93699219 -22.78640625 49.24507813 -22.125 49.5625 C-18.84315303 50.92686335 -18.17020989 51.03951301 -14.5 50.1875 C-13.2625 49.5996875 -13.2625 49.5996875 -12 49 C-12 46.36 -12 43.72 -12 41 C-12.7321875 40.72414063 -13.464375 40.44828125 -14.21875 40.1640625 C-20.87493969 37.37818535 -26.59887797 33.62704536 -30.125 27.19921875 C-32.7233102 20.66864445 -32.54805691 14.47991297 -30.01171875 7.97265625 C-24.14280557 -3.47059145 -10.80850206 -4.2783654 0 0 Z " fill="#020230" transform="translate(634,395)"/>
</svg>
